# xmcd
#
# Track frame offsets:
#	150
#	11670
#	25991
#	39443
#	47005
#	58731
#	70540
#	83805
#	97728
#	109205
#	120528
#	131943
#	147382
#	158386
#	171164
#	181274
#	198197
#	209608
#
# Disc length: 2978 seconds
#
# Revision: 0
# Processed by: cddbd v1.5.2PL0 Copyright (c) Steve Scherf et al.
# Submitted via: audiograbber 1.83.01
#
DISCID=f10ba012
DTITLE=Francis Lemarque - Librairie Sonore Anthologie 1949-59
DYEAR=2011
DGENRE=Chanson francaise
TTITLE0=Marjolaine
TTITLE1=Bientot le soleil
TTITLE2=Les routiers
TTITLE3=Le chemin des oliviers
TTITLE4=Le p'tit mome
TTITLE5=Le chemineau
TTITLE6=Ballade de Paris
TTITLE7=L'ane et le paysan
TTITLE8=Les ouvriers
TTITLE9=L'air de Paris
TTITLE10=La poupee magique
TTITLE11=Le mal d'amour
TTITLE12=La guinguette au bord de l'eau
TTITLE13=A cote du canal
TTITLE14=L'assassin du dimanche
TTITLE15=Soleil d'acier
TTITLE16=Rendez-vous de Paname (14 juillet)
TTITLE17=Le temps du muguet
EXTD=
EXTT0=1958
EXTT1=1956
EXTT2=1956
EXTT3=1956
EXTT4=1956
EXTT5=1956
EXTT6=1956
EXTT7=1958
EXTT8=1958
EXTT9=1958
EXTT10=1958
EXTT11=1958
EXTT12=1958
EXTT13=1958
EXTT14=1958
EXTT15=1959
EXTT16=1958
EXTT17=1959
PLAYORDER=
